#!OML:ASF H:\GeneralSubjects\Female5\Project 1\Capture day 1\Session 1\Female5.ASF
:FULLY-SPECIFIED
:DEGREES
1119
root -32.6055 15.5437 7.98432 922.212 23.9435 552.848
lowerback 8.84613 1.32211 1.70578
upperback -12.4475 3.92947 3.64329
thorax -19.6262 2.40621 2.14791
lowerneck -13.8704 1.04063 8.64481
upperneck 37.0781 0.30186 6.68802
head 15.4738 3.61128 1.75134
rclavicle 3.83903e-014 5.76476e-014
rhumerus -43.3272 19.7938 -81.2124
rradius 28.797
rwrist -13.2622
rhand -27.6051 -21.6082
rfingers 7.12502
rthumb -1.00449 -51.5856
lclavicle 3.83903e-014 5.76476e-014
lhumerus -42.0732 -7.03015 90.5291
lradius 37.662
lwrist -6.61028
lhand -25.6772 31.7125
lfingers 7.12502
lthumb 0.857552 61.6905
rfemur 8.47999 38.0359 49.8316
rtibia -9.45632
rfoot -56.3273 -38.3735
rtoes 18.8472
lfemur -224.838 161.882 -190.592
ltibia 10.8377
lfoot 135.779 -131.893
ltoes -55.4788
1120
root -32.6184 15.5597 8.12094 921.908 24.5365 552.855
lowerback 9.16781 1.10141 1.76585
upperback -12.3053 3.6174 3.75911
thorax -19.6506 2.25179 2.32647
lowerneck -13.6194 1.2297 8.64995
upperneck 37.2049 0.65627 6.5697
head 15.4762 3.74086 1.7573
rclavicle 1.6847e-014 3.93594e-014
rhumerus -44.0569 19.3644 -80.7202
rradius 28.1723
rwrist -13.0281
rhand -26.4871 -20.7417
rfingers 7.12502
rthumb 0.0752493 -50.7214
lclavicle 1.6847e-014 3.93594e-014
lhumerus -42.3269 -5.81775 90.3445
lradius 36.8586
lwrist -7.79145
lhand -24.9423 31.3801
lfingers 7.12502
lthumb 1.56734 61.3541
rfemur 8.97944 38.3887 49.9777
rtibia -10.3314
rfoot -55.7126 -38.7236
rtoes 19.6617
lfemur -225.606 149.384 -196.838
ltibia 11.5486
lfoot 136.802 -162.806
ltoes -34.8289
1121
root -32.6294 15.5636 8.26147 921.884 25.808 552.954
lowerback 9.31818 1.64004 1.61083
upperback -12.2327 4.20371 3.27923
thorax -19.6384 2.45547 1.69893
lowerneck -14.1975 0.910445 9.50845
upperneck 37.4034 -0.131743 6.50367
head 15.7335 3.55784 1.48631
rclavicle -1.87852e-014 1.98785e-014
rhumerus -45.0719 17.0052 -80.0759
rradius 27.5974
rwrist -12.9723
rhand -26.3781 -20.2268
rfingers 7.12502
rthumb 0.180574 -50.2065
lclavicle -1.87852e-014 1.98785e-014
lhumerus -42.4901 -6.66436 90.3695
lradius 36.212
lwrist -8.89746
lhand -23.4891 30.7715
lfingers 7.12502
lthumb 2.97073 60.7305
rfemur 8.87931 39.477 49.7307
rtibia -10.4259
rfoot -55.3203 -38.7233
rtoes 19.8279
lfemur -223.092 154.514 -191.882
ltibia 9.43144
lfoot 132.725 -161.601
ltoes -32.8513
1122
root -32.6389 15.5675 8.38893 921.814 27.1791 552.996
lowerback 9.46132 1.54292 1.62992
upperback -12.1765 4.05733 3.33855
thorax -19.661 2.38166 1.79487
lowerneck -13.712 1.21784 9.29841
upperneck 37.5464 0.504809 6.41489
head 15.6863 3.77645 1.58391
rclavicle -5.40197e-014 -1.07344e-014
rhumerus -46.085 17.0147 -79.9448
rradius 27.1606
rwrist -12.8613
rhand -27.1919 -20.509
rfingers 7.12502
rthumb -0.605387 -50.4879
lclavicle -5.40197e-014 -1.07344e-014
lhumerus -43.3932 -5.86976 90.1224
lradius 35.9184
lwrist -9.40858
lhand -22.5244 30.0138
lfingers 7.12502
lthumb 3.9024 59.9578
rfemur 9.21619 40.623 49.6956
rtibia -10.8318
rfoot -55.124 -38.7125
rtoes 20.0402
lfemur -220.636 161.446 -186.233
ltibia 6.8438
lfoot 128.383 -160.085
ltoes -42.3643
1123
root -32.6445 15.5734 8.51151 921.879 28.482 553.286
lowerback 9.53276 1.60861 1.67369
upperback -12.165 4.12625 3.26907
thorax -19.6866 2.38863 1.67124
lowerneck -13.2233 1.41016 9.85716
upperneck 37.6013 0.810595 6.24034
head 15.6149 3.96636 1.45701
rclavicle -5.96354e-016 -5.84427e-014
rhumerus -47.0756 15.7292 -79.2499
rradius 26.4334
rwrist -11.0183
rhand -27.7102 -20.4202
rfingers 7.12502
rthumb -1.10603 -50.3971
lclavicle -5.96354e-016 -5.84427e-014
lhumerus -44.31 -6.45624 90.1934
lradius 35.4815
lwrist -8.95163
lhand -22.2303 29.8489
lfingers 7.12502
lthumb 4.18635 59.7875
rfemur 9.65234 41.7864 50.0652
rtibia -11.3198
rfoot -55.3385 -38.0299
rtoes 22.3395
lfemur -218.917 169.214 -180.148
ltibia 4.32437
lfoot 123.329 -160.435
ltoes -46.6029
1124
root -32.6497 15.5803 8.63925 922.14 29.5782 553.787
lowerback 9.55402 1.63055 1.67868
upperback -12.1696 4.19375 3.4569
thorax -19.7327 2.44096 1.87034
lowerneck -13.0481 1.52236 9.95012
upperneck 37.8901 1.08157 6.01054
head 15.722 4.0795 1.40143
rclavicle -3.4191e-014 1.19271e-015
rhumerus -47.8947 14.9181 -78.6042
rradius 25.5034
rwrist -10.1105
rhand -27.8513 -20.5345
rfingers 7.12502
rthumb -1.24229 -50.5106
lclavicle -3.4191e-014 1.19271e-015
lhumerus -45.0943 -6.17906 90.1483
lradius 34.9021
lwrist -8.96638
lhand -21.9534 30.0555
lfingers 7.12502
lthumb 4.45378 59.9886
rfemur 9.69727 42.8922 50.5043
rtibia -11.5013
rfoot -55.1361 -37.9184
rtoes 23.8779
lfemur -218.384 175.691 -174.827
ltibia 2.64766
lfoot 120.39 -161.385
ltoes -47.2782
1125
root -32.6558 15.5823 8.75635 922.487 30.739 554.188
lowerback 9.40015 1.61834 1.87998
upperback -12.1734 4.21282 3.50924
thorax -19.6228 2.427 1.82065
lowerneck -13.5318 1.52882 9.68958
upperneck 38.5202 1.17542 5.72258
head 16.1517 4.07455 1.39055
rclavicle 1.22451e-013 3.29983e-014
rhumerus -48.8885 14.8246 -78.6577
rradius 25.0518
rwrist -10.0567
rhand -26.9716 -20.2465
rfingers 7.12502
rthumb -0.392675 -50.2259
lclavicle 1.22451e-013 3.29983e-014
lhumerus -45.7311 -5.3416 89.5528
lradius 34.2434
lwrist -9.3237
lhand -21.8803 30.1642
lfingers 7.12502
lthumb 4.52437 60.0959
rfemur 9.57161 44.0848 50.7703
rtibia -11.454
rfoot -55.0329 -37.8505
rtoes 24.6236
lfemur -218.49 179.723 -171.241
ltibia 1.84356
lfoot 121.001 -162.418
ltoes -46.7054
